<svg xmlns="http://www.w3.org/2000/svg" version="1.1" xmlns:xlink="http://www.w3.org/1999/xlink" width="512" height="512" x="0" y="0" viewBox="0 0 512 512" style="enable-background:new 0 0 512 512" xml:space="preserve" class=""><g><path d="M482.621 45.09H346.3l11.401-16.12c3.848-5.44 4.339-12.488 1.282-18.395S349.889 1 343.226 1h-63.648c-6.663 0-12.701 3.669-15.758 9.575s-2.565 12.954 1.282 18.394l11.402 16.121H140.183c-15.648 0-28.379 12.73-28.379 28.379v70.902C48.809 156.232 1 211.657 1 278.045s47.809 121.812 110.804 133.674v70.901c0 15.648 12.731 28.38 28.379 28.38h342.438C498.269 511 511 498.269 511 482.62V73.469c0-15.649-12.731-28.379-28.379-28.379zm-238.707 16h48.047a7.998 7.998 0 0 0 6.531-12.619L278.165 19.73c-.409-.577-.454-1.184-.135-1.8.319-.617.84-.93 1.548-.93h63.648c.708 0 1.229.312 1.548.93.319.616.273 1.222-.135 1.801l-20.327 28.74a7.999 7.999 0 0 0 6.531 12.619h48.046v30.279H243.914zm142.976 46.279a8 8 0 0 0 8-8v-5.071h66.903V413.02H421.02a8 8 0 0 0-8 8v40.773H161.011v-49.837c29.469-5.263 55.674-20.054 75.323-41.053h187.729a8 8 0 0 0 0-16H249.2a135.513 135.513 0 0 0 18.935-40.571h155.928a8 8 0 0 0 0-16h-152.52a136.544 136.544 0 0 0 0-40.571h152.52a8 8 0 0 0 0-16H268.135a135.494 135.494 0 0 0-18.935-40.572h174.863a8 8 0 0 0 0-16H236.334c-19.648-20.999-45.854-35.79-75.323-41.053V94.298h66.903v5.071a8 8 0 0 0 8 8zm63.589 321.651-21.46 21.459V429.02zM127.804 73.469c0-6.826 5.553-12.379 12.379-12.379h87.73v17.208H153.01a8 8 0 0 0-8 8v55.959c-2.642-.154-5.302-.24-7.982-.24-3.101 0-6.175.114-9.225.319V73.469zM17 278.045c0-66.184 53.844-120.028 120.028-120.028s120.028 53.845 120.028 120.028-53.844 120.028-120.028 120.028S17 344.229 17 278.045zM495 482.62c0 6.826-5.553 12.38-12.379 12.38H140.183c-6.826 0-12.379-5.554-12.379-12.38v-68.866c3.05.205 6.124.319 9.225.319 2.68 0 5.34-.087 7.982-.24v55.96a8 8 0 0 0 8 8h268.008a8 8 0 0 0 5.657-2.343l48.774-48.773a8.002 8.002 0 0 0 2.343-5.657V86.298a8 8 0 0 0-8-8H394.89V61.09h87.73c6.826 0 12.379 5.553 12.379 12.379V482.62zm-117.474-63.146a8 8 0 0 1-8 8H198.741a8 8 0 0 1 0-16h170.785a8 8 0 0 1 8 8zM198.741 128.617h225.321a8 8 0 0 1 0 16H198.741a8 8 0 0 1 0-16zm5.343 217.544c0-3.445-.811-6.703-2.253-9.595 5.48-3.924 9.06-10.351 9.06-17.6 0-3.458-.814-6.729-2.261-9.63 5.485-3.923 9.068-10.353 9.068-17.604 0-3.458-.814-6.729-2.261-9.63 5.485-3.923 9.068-10.353 9.068-17.604 0-11.92-9.679-21.618-21.616-21.618l-38.005.191c1.148-4.183 2.354-8.472 3.538-12.682 4.163-14.801 7.758-27.583 8.332-33.77 1.387-14.946-5.847-28.933-16.825-32.533-6.414-2.102-15.473-.684-21.664 9.612l-45.318 75.378a12.562 12.562 0 0 0-6.028-1.533H67.735c-6.97 0-12.641 5.671-12.641 12.642v94.91c0 6.97 5.67 12.641 12.641 12.641H86.92c4.189 0 7.898-2.057 10.199-5.204l8.167 4.287a7.99 7.99 0 0 0 3.718.917h73.504c11.897.001 21.576-9.677 21.576-21.575zm-132.99 5.576v-88.192H83.56V351.737zm28.466-5.991v-76.614l52.417-87.189c.304-.505 1.876-3.011 2.964-2.653 2.561.84 6.715 6.854 5.88 15.852-.439 4.736-4.183 18.045-7.802 30.916-2.187 7.772-4.447 15.811-6.313 23.076a8 8 0 0 0 7.748 9.99h.041l48.433-.244c3.022 0 5.576 2.573 5.576 5.618s-2.554 5.617-5.576 5.617h-32.32a8 8 0 0 0 0 16h25.513c3.023 0 5.577 2.572 5.577 5.617s-2.554 5.617-5.577 5.617h-32.32a8 8 0 0 0 0 16h25.513c3.023 0 5.577 2.572 5.577 5.617 0 3.098-2.501 5.618-5.577 5.618h-32.319a8 8 0 0 0 0 16h25.513c3.075 0 5.576 2.501 5.576 5.576s-2.501 5.576-5.576 5.576h-71.532z" fill="#EBB720" opacity="1" data-original="#000000" class=""></path></g></svg>