<svg xmlns="http://www.w3.org/2000/svg" version="1.1" xmlns:xlink="http://www.w3.org/1999/xlink" width="512" height="512" x="0" y="0" viewBox="0 0 682.667 682.667" style="enable-background:new 0 0 512 512" xml:space="preserve" class=""><g><defs><clipPath id="a" clipPathUnits="userSpaceOnUse"><path d="M0 512h512V0H0Z" fill="#ebb720" opacity="1" data-original="#000000"></path></clipPath></defs><g clip-path="url(#a)" transform="matrix(1.33333 0 0 -1.33333 0 682.667)"><path d="M0 0c2.517-.162 5.057-.24 7.621-.236 24.059.044 46.192 7.08 67.18 18.249 25.217 13.42 46.917 31.475 66.84 51.719 23.116 23.49 44.058 48.766 61.201 77.009 14.053 23.155 24.97 47.583 29.089 74.616 1.172 7.695 1.674 15.428 1.465 23.147a123.178 123.178 0 0 1-2.447 21.362c-4.972 24.301-17.177 44.376-36.201 60.305-5.353 4.483-10.569 9.138-16.024 13.493-11.736 9.369-23.305 8.614-34.121-1.771-6.35-6.097-11.584-13.191-16.4-20.53-2.493-3.801-5.244-7.682-7.321-11.731-5.577-10.888-12.799-20.521-15.047-33.218-2.051-11.581.918-21.7 9.468-29.72 6.498-6.094 13.2-12.124 20.511-17.167 14.565-10.044 16.582-22.706 10.974-38.53-2.998-8.457-7.321-16.352-12.275-23.815-9.377-14.131-20.285-27.094-32.07-39.422-13.022-13.623-29.123-29.548-48.137-33.893-9.617-2.197-17.772.466-24.856 7.215-6.958 6.63-13.883 13.32-21.204 19.535-12.044 10.224-25.441 10.775-39.007 3.561-18.253-9.706-32.683-24.145-47.639-38.407-3.009-2.87-5.386-6.559-7.477-10.204-5.647-9.845-5.03-19.53 3.028-27.406 11.024-10.772 21.975-21.77 35.484-29.649a110.515 110.515 0 0 1 13.436-6.676" style="stroke-linecap: round; stroke-linejoin: round; stroke-miterlimit: 10; stroke-dasharray: none; stroke-opacity: 1;" transform="translate(270.378 7.67)" fill="none" stroke="#EBB720" stroke-width="15px" stroke-linecap="round" stroke-linejoin="round" stroke-miterlimit="10" stroke-dasharray="none" stroke-opacity="" data-original="#000000" opacity="1"></path><path d="M0 0c2.029-17.941.993-36.56-3.519-55.177-11.902-49.108-45.508-87.121-88.068-106.483-1.803-.819-3.057-2.503-3.273-4.471-1.244-11.273-.961-23.891 2.419-36.886 1.175-4.519-3.36-8.429-7.617-6.507-10.734 4.845-27.317 14.511-40.843 31.985-1.141 1.473-2.953 2.248-4.811 2.117-17.487-1.231-35.499.443-53.408 5.422-83.023 23.082-131.835 107.551-110.474 191.032 21.567 84.282 107.329 135.199 191.669 113.745C-64.609 121.215-24.674 82.325-7.816 34.184" style="stroke-linecap: round; stroke-linejoin: round; stroke-miterlimit: 10; stroke-dasharray: none; stroke-opacity: 1;" transform="translate(322.785 364.883)" fill="none" stroke="#EBB720" stroke-width="15px" stroke-linecap="round" stroke-linejoin="round" stroke-miterlimit="10" stroke-dasharray="none" stroke-opacity="" data-original="#000000" opacity="1"></path><path d="M0 0v-26.207h-.614c-5.721 0-10.358-4.638-10.358-10.358 0-5.721 4.637-10.358 10.358-10.358H0v-.332c0-18.593 15.072-33.664 33.664-33.664h25.94c18.592 0 33.665 15.071 33.665 33.664v.332h.613c5.721 0 10.358 4.637 10.358 10.358 0 5.72-4.637 10.358-10.358 10.358h-.613V0" style="stroke-linecap: round; stroke-linejoin: round; stroke-miterlimit: 10; stroke-dasharray: none; stroke-opacity: 1;" transform="translate(119.345 385.706)" fill="none" stroke="#EBB720" stroke-width="15px" stroke-linecap="round" stroke-linejoin="round" stroke-miterlimit="10" stroke-dasharray="none" stroke-opacity="" data-original="#000000" opacity="1"></path><path d="M0 0h-46.635s3.353-5.787 5.508-8.532c2.7-3.442 5.812-6.577 9.326-9.189C-20.437-26.165-5.833-29.965 8.193-27.88a50.82 50.82 0 0 1 21.641 8.608 52.884 52.884 0 0 1 5.883 4.801C40.154-10.294 44.958-4.069 46.636 0z" style="stroke-linecap: round; stroke-linejoin: round; stroke-miterlimit: 10; stroke-dasharray: none; stroke-opacity: 1;" transform="translate(165.98 385.706)" fill="none" stroke="#EBB720" stroke-width="15px" stroke-linecap="round" stroke-linejoin="round" stroke-miterlimit="10" stroke-dasharray="none" stroke-opacity="" data-original="#000000" opacity="1"></path><path d="m0 0-28.88-11.944a12.97 12.97 0 0 1-7.477-15.676l4.139-13.947h93.27l4.139 13.947a12.97 12.97 0 0 1-7.477 15.676L28.835 0A37.727 37.727 0 0 1 0 0Z" style="stroke-linecap: round; stroke-linejoin: round; stroke-miterlimit: 10; stroke-dasharray: none; stroke-opacity: 1;" transform="translate(151.563 427.273)" fill="none" stroke="#EBB720" stroke-width="15px" stroke-linecap="round" stroke-linejoin="round" stroke-miterlimit="10" stroke-dasharray="none" stroke-opacity="" data-original="#000000" opacity="1"></path><path d="M0 0h1.544c20.215 0 36.614-16.389 36.614-36.604v-9.426C22.716-53.895 5.239-58.327-13.283-58.327c-18.522 0-35.998 4.432-51.441 12.297v9.426C-64.724-16.389-48.325 0-28.109 0h1.544" style="stroke-linecap: round; stroke-linejoin: round; stroke-miterlimit: 10; stroke-dasharray: none; stroke-opacity: 1;" transform="translate(179.263 291.588)" fill="none" stroke="#EBB720" stroke-width="15px" stroke-linecap="round" stroke-linejoin="round" stroke-miterlimit="10" stroke-dasharray="none" stroke-opacity="" data-original="#000000" opacity="1"></path><path d="M0 0v0c-7.335 0-13.282 5.947-13.282 13.283v13.282h26.565V13.283C13.283 5.947 7.336 0 0 0Z" style="stroke-linecap: round; stroke-linejoin: round; stroke-miterlimit: 10; stroke-dasharray: none; stroke-opacity: 1;" transform="translate(165.98 278.223)" fill="none" stroke="#EBB720" stroke-width="15px" stroke-linecap="round" stroke-linejoin="round" stroke-miterlimit="10" stroke-dasharray="none" stroke-opacity="" data-original="#000000" opacity="1"></path><path d="M0 0c0-62.715-50.84-113.555-113.555-113.555-62.714 0-113.554 50.84-113.554 113.555 0 62.714 50.84 113.554 113.554 113.554C-50.84 113.554 0 62.714 0 0Z" style="stroke-linecap: round; stroke-linejoin: round; stroke-miterlimit: 10; stroke-dasharray: none; stroke-opacity: 1;" transform="translate(279.534 346.815)" fill="none" stroke="#EBB720" stroke-width="15px" stroke-linecap="round" stroke-linejoin="round" stroke-miterlimit="10" stroke-dasharray="none" stroke-opacity="" data-original="#000000" opacity="1"></path></g></g></svg>