<svg width="67" height="81" viewBox="0 0 67 81" fill="none" xmlns="http://www.w3.org/2000/svg">
<path fill-rule="evenodd" clip-rule="evenodd" d="M0.0716553 33.3276C0.0716553 15.0725 14.8703 0.273834 33.1255 0.273834C51.3806 0.273834 66.1793 15.0725 66.1793 33.3276C66.1793 42.4551 62.4797 50.7185 56.4982 56.7L56.5989 56.8007L33.1259 80.2738L9.65277 56.8007L9.75307 56.7004C7.66478 54.6121 5.85461 52.2457 4.38289 49.6616H31.944V49.5983C32.417 49.6402 32.896 49.6616 33.3799 49.6616C42.2605 49.6616 49.4596 42.4624 49.4596 33.5818C49.4596 24.7013 42.2605 17.5021 33.3799 17.5021C24.4993 17.5021 17.3002 24.7013 17.3002 33.5818C17.3002 35.9356 17.8059 38.1712 18.7146 40.186H0.784103C0.317219 37.9734 0.0716553 35.6792 0.0716553 33.3276Z" fill="#EBB720"/>
<path fill-rule="evenodd" clip-rule="evenodd" d="M3.3343 47.667H15.5755H16.7021H33.4402C37.3231 47.667 40.6272 46.3043 43.3526 43.5789C46.0781 40.8534 47.4408 37.5493 47.4408 33.6665C47.4408 29.7836 46.0594 26.4795 43.2966 23.7541C40.5712 21.0286 37.2857 19.6659 33.4402 19.6659C29.5947 19.6659 26.2906 21.0286 23.5278 23.7541C20.8024 26.4795 19.4397 29.7836 19.4397 33.6665C19.4397 35.4585 19.8504 37.1199 20.6717 38.6507C21.4931 40.1441 22.5945 41.3574 23.9759 42.2908H16.7021H15.5755H1.30011C1.82403 44.1548 2.5073 45.9521 3.3343 47.667ZM33.4402 42.2908C31.0508 42.2908 29.0161 41.4508 27.336 39.7707C25.6559 38.0906 24.8159 36.0559 24.8159 33.6665C24.8159 31.277 25.6559 29.2423 27.336 27.5622C29.0161 25.8448 31.0508 24.9861 33.4402 24.9861C35.8297 24.9861 37.8644 25.8448 39.5445 27.5622C41.2245 29.2423 42.0646 31.277 42.0646 33.6665C42.0646 36.0559 41.2245 38.0906 39.5445 39.7707C37.8644 41.4508 35.8297 42.2908 33.4402 42.2908Z" fill="#0C0C0C"/>
</svg>
