<svg xmlns="http://www.w3.org/2000/svg" version="1.1" xmlns:xlink="http://www.w3.org/1999/xlink" width="512" height="512" x="0" y="0" viewBox="0 0 609.623 609.623" style="enable-background:new 0 0 512 512" xml:space="preserve" class=""><g><g fill-rule="evenodd" clip-rule="evenodd"><path d="M284.491 304.72h40.642c5.611 0 10.16-4.549 10.16-10.16s-4.549-10.16-10.16-10.16h-40.642c-5.611 0-10.16 4.549-10.16 10.16-.001 5.611 4.548 10.16 10.16 10.16zM314.972 314.88h-20.321c-5.611 0-10.16 4.549-10.16 10.16s4.549 10.16 10.16 10.16h20.321c5.611 0 10.16-4.549 10.16-10.16s-4.549-10.16-10.16-10.16zM274.33 203.116c0-5.611-4.549-10.16-10.16-10.16h-20.321c-5.611 0-10.16 4.549-10.16 10.16s4.549 10.16 10.16 10.16c0 5.611 4.549 10.16 10.16 10.16s10.16-4.549 10.16-10.16c5.612 0 10.161-4.548 10.161-10.16zM345.453 213.276c0 5.611 4.549 10.16 10.16 10.16s10.16-4.549 10.16-10.16c5.611 0 10.16-4.549 10.16-10.16s-4.549-10.16-10.16-10.16h-20.321c-5.611 0-10.16 4.549-10.16 10.16 0 5.612 4.549 10.16 10.161 10.16zM294.651 264.078h20.321c5.611 0 10.16-4.549 10.16-10.16s-4.549-10.16-10.16-10.16h-20.321c-5.611 0-10.16 4.549-10.16 10.16s4.549 10.16 10.16 10.16z" fill="#FFFFFF" opacity="1" data-original="#000000" class=""></path></g><path d="M74.1 470.263c-26.183 26.163-43.619 52.996-43.619 98.627v20.412c0 11.223 9.098 20.321 20.321 20.321h508.019c11.223 0 20.321-9.098 20.321-20.321V568.89c0-45.671-17.435-72.464-43.619-98.627-28.591-28.581-119.334-55.781-141.788-62.182a152.472 152.472 0 0 1-9.144-72.007l24.822-21.733a50.8 50.8 0 0 0 17.323-38.223v-13.056c23.637-4.792 40.626-25.572 40.626-49.689s-16.989-44.897-40.626-49.689l8.687-34.759 36.791-18.4a46.331 46.331 0 0 0 1.016-82.37C448.337 15.312 398.907 0 304.811 0S161.286 15.312 136.403 28.154a46.32 46.32 0 0 0 1.016 82.371l36.791 18.4 8.677 34.759c-23.637 4.792-40.626 25.572-40.626 49.689s16.989 44.897 40.626 49.689v13.056a50.802 50.802 0 0 0 17.354 38.223l24.822 21.733a152.473 152.473 0 0 1-9.144 72.007c-22.486 6.401-113.228 33.601-141.819 62.182zm68.663 119.039H50.802V568.89c0-38.813 14.407-61.013 37.665-84.26 13.534-13.534 47.266-28.114 79.251-39.625l-35.886 55.059a20.318 20.318 0 0 0 13.046 31.04l11.583 2.296a161.11 161.11 0 0 0-13.698 55.902zm51.148-147.326 21.723 21.723a163.753 163.753 0 0 0-49.247 50.964l-17.567-3.526zm80.419 116.845a50.863 50.863 0 0 0-19.213 30.481h-51.351c3.889-40.493 31.71-74.691 70.564-86.739zm80.176 30.481a50.802 50.802 0 0 0-19.213-30.481l-.122-56.39c38.91 12.075 66.774 46.319 70.686 86.871zm71.803 0c-3.973-49.468-37.66-91.536-85.063-106.227a19.894 19.894 0 0 0-17.923 3.048 20.554 20.554 0 0 0-8.352 16.439v61.745a10.162 10.162 0 0 0 5.08 8.809 30.268 30.268 0 0 1 13.259 16.185h-56.949a30.262 30.262 0 0 1 13.208-16.185 10.16 10.16 0 0 0 5.08-8.809v-61.745a20.554 20.554 0 0 0-8.352-16.48 19.855 19.855 0 0 0-17.913-3.048c-47.42 14.693-81.114 56.781-85.073 106.267h-20.229c5.201-74.446 67.11-132.181 141.737-132.181s136.536 57.735 141.737 132.181h-20.247zM236.666 410.581a169.899 169.899 0 0 0 9.683-55.882l9.805 8.575a50.799 50.799 0 0 0 33.417 12.568h30.481a50.806 50.806 0 0 0 33.448-12.568l9.805-8.575a169.899 169.899 0 0 0 9.683 55.882l-68.176 25.624zm284.49 74.049c23.257 23.247 37.664 45.447 37.664 84.26v20.412h-91.962a161.13 161.13 0 0 0-13.656-55.882l11.583-2.296a20.322 20.322 0 0 0 13.036-31.06l-35.846-55.039c31.914 11.491 65.646 26.072 79.18 39.625v-.02zm-60.342 26.539-17.577 3.495a163.702 163.702 0 0 0-49.247-50.975l21.723-21.713zm-74.242-84.006a639.73 639.73 0 0 1 11.776 3.434l-22.749 22.749a160.77 160.77 0 0 0-29.546-10.943zM179.94 109.092l-33.529-16.744a25.85 25.85 0 0 1-14.326-23.257A25.491 25.491 0 0 1 145.72 46.21c22.942-11.806 69.08-25.889 159.091-25.889s136.2 14.082 159.101 25.899a25.502 25.502 0 0 1 13.625 22.871 25.847 25.847 0 0 1-14.377 23.247l-33.529 16.744c-11.583-11.39-42.521-27.799-124.82-27.799S191.574 97.692 179.94 109.092zm235.884 14.611-7.681 30.735a461.05 461.05 0 0 1-103.331 8.128 461.461 461.461 0 0 1-103.331-8.128l-7.63-30.481c5.72-5.842 29.181-22.353 110.961-22.353 82.898 0 105.881 16.968 111.012 22.099zM213.632 299.05a30.48 30.48 0 0 1-10.425-22.932v-22.2c0-5.611-4.549-10.16-10.16-10.16-14.843.124-27.59-10.522-30.112-25.149s5.924-28.928 19.951-33.781v18.289c0 5.611 4.549 10.16 10.16 10.16s10.16-4.549 10.16-10.16v-27.514a537.75 537.75 0 0 0 101.604 7.285 537.75 537.75 0 0 0 101.604-7.285v27.514c0 5.611 4.549 10.16 10.16 10.16s10.16-4.549 10.16-10.16v-18.289c14.027 4.853 22.473 19.154 19.951 33.781s-15.269 25.274-30.112 25.149c-5.611 0-10.16 4.549-10.16 10.16v22.2a30.482 30.482 0 0 1-10.404 22.932l-55.882 48.922a30.48 30.48 0 0 1-20.077 7.549h-30.481a30.48 30.48 0 0 1-20.077-7.549zm49.959 143.353a160.67 160.67 0 0 0-29.546 10.943l-22.769-22.749a631.963 631.963 0 0 1 11.776-3.434z" fill="#FFFFFF" opacity="1" data-original="#000000" class=""></path></g></svg>