<svg xmlns="http://www.w3.org/2000/svg" version="1.1" xmlns:xlink="http://www.w3.org/1999/xlink" width="512" height="512" x="0" y="0" viewBox="0 0 512.001 512.001" style="enable-background:new 0 0 512 512" xml:space="preserve" class=""><g><path d="M328.954 199.329a7.502 7.502 0 0 0-9.74 4.197l-39.536 99.404a7.5 7.5 0 0 0 13.937 5.544l39.536-99.404a7.498 7.498 0 0 0-4.197-9.741zM413.879 202.198a7.5 7.5 0 0 0-6.28-3.4h-54.684a7.5 7.5 0 0 0 0 15h43.194l-39.073 88.886a7.5 7.5 0 0 0 6.863 10.52 7.502 7.502 0 0 0 6.87-4.484l43.696-99.404a7.499 7.499 0 0 0-.586-7.118zM233.091 305.637a7.5 7.5 0 1 0 14.999.129c.023-2.589.094-11.053.172-21.903h5.26c4.143 0 7.5-3.358 7.5-7.5s-3.357-7.5-7.5-7.5h-5.161c.15-24.571.251-52.716-.048-56.299-.535-6.414-4.28-11.611-9.543-13.241-2.481-.768-8.907-1.749-14.98 5.703-5.598 6.867-33.683 57.611-39.256 67.713a7.5 7.5 0 0 0 6.566 11.123h42.159c-.052 7.721-.111 15.164-.168 21.775zm-29.255-36.773c10.781-19.358 24.162-42.953 29.624-51.505.106 8.431.032 29.642-.1 51.505zM157.874 297.978c-12.812.161-26.536.247-36.118.216 5.43-7.148 14.163-18.83 27.377-37.711 5.969-8.528 9.847-16.526 11.527-23.772.057-.246.102-.493.133-.743l.482-3.771c.04-.315.061-.633.061-.951 0-17.892-14.556-32.447-32.447-32.447-15.47 0-28.86 11.004-31.838 26.166a7.5 7.5 0 0 0 14.719 2.892c1.6-8.146 8.8-14.058 17.12-14.058 9.475 0 17.209 7.592 17.441 17.012l-.365 2.86c-1.295 5.288-4.362 11.413-9.121 18.212-15.485 22.126-24.729 34.23-29.696 40.733-5.981 7.832-7.786 10.195-6.439 14.575.765 2.488 2.663 4.402 5.206 5.25.986.329 2.331.778 21.081.778 7.344 0 17.361-.069 31.066-.241a7.5 7.5 0 0 0 7.405-7.594c-.052-4.143-3.439-7.47-7.594-7.406z" fill="#FFFFFF" opacity="1" data-original="#000000" class=""></path><path d="m446.704 85.245-6.384-44.69a11.578 11.578 0 0 0-7.846-9.397 11.58 11.58 0 0 0-11.912 2.813L406.01 48.524C360.073 15.243 303.564-1.917 246.567.173c-58.269 2.13-114.524 24.328-158.406 62.504a7.5 7.5 0 1 0 9.846 11.316C182.614.388 309.362-4.542 399.387 62.267c4.688 3.479 11.078 3.017 15.191-1.098l11.843-11.843 8.179 57.255-57.254-8.179 7.556-7.555a11.613 11.613 0 0 0 3.363-9.257 11.637 11.637 0 0 0-4.946-8.54c-42.367-29.556-94.206-43.46-145.964-39.14-52.378 4.367-101.722 27.271-138.943 64.492-40.732 40.732-63.893 94.87-65.218 152.438-1.168 50.74 14.704 99.581 44.985 139.534l-3.08-.44c-3.663-.528-7.263.677-9.879 3.292a11.571 11.571 0 0 0-3.175 5.863C-4.425 309.299-.768 183.978 73.973 98.03a7.5 7.5 0 0 0-.738-10.581 7.499 7.499 0 0 0-10.581.738C21.535 135.473-.71 196.128.017 258.979c.719 62.17 23.897 121.663 65.294 167.816l6.378 44.648c.627 4.393 3.633 7.995 7.843 9.398s8.776.327 11.914-2.812l14.551-14.552c43.598 31.596 96.202 48.523 150.058 48.522 5.92 0 11.858-.205 17.797-.617 61.547-4.27 119.497-30.677 163.175-74.356 46.903-46.905 73.509-109.247 74.915-175.541 1.385-65.299-21.776-127.783-65.238-176.24zM426.42 426.42c-83.834 83.837-218.739 93.86-313.799 23.313-4.687-3.479-11.077-3.017-15.191 1.099l-11.841 11.841-8.179-57.255 57.254 8.179-7.551 7.55a11.617 11.617 0 0 0-3.363 9.257 11.64 11.64 0 0 0 4.946 8.539c82.918 57.842 194.599 52.472 271.589-13.059a7.5 7.5 0 0 0-9.722-11.423c-70.785 60.25-173.015 65.968-249.985 14.434l9.442-9.442a11.58 11.58 0 0 0 2.812-11.914 11.578 11.578 0 0 0-9.398-7.843l-43.308-6.187c-72.66-82.189-68.968-206.638 8.892-284.501 70.399-70.401 180.14-81.021 262.42-25.911l-9.448 9.448c-3.138 3.138-4.215 7.704-2.812 11.914s5.005 7.215 9.397 7.843l43.312 6.188c68.11 77.079 69.391 193.55 2.59 272.055a7.499 7.499 0 0 0 .852 10.572 7.47 7.47 0 0 0 4.856 1.788 7.486 7.486 0 0 0 5.716-2.64c67.946-79.849 70.206-196.332 7.924-278.641l3.086.441c3.665.521 7.263-.678 9.878-3.294a11.561 11.561 0 0 0 3.173-5.853c70.321 94.861 61.819 228.14-23.542 313.502z" fill="#FFFFFF" opacity="1" data-original="#000000" class=""></path><path d="M247.438 130.961h17.134c8.547 0 15.5-6.953 15.5-15.5V81.759c0-8.547-6.953-15.5-15.5-15.5h-17.134c-8.547 0-15.5 6.953-15.5 15.5v33.702c0 8.547 6.953 15.5 15.5 15.5zm-.5-49.202a.5.5 0 0 1 .5-.5h17.134a.5.5 0 0 1 .5.5v33.702a.5.5 0 0 1-.5.5h-17.134a.5.5 0 0 1-.5-.5zM264.571 381.039h-17.134c-8.547 0-15.5 6.953-15.5 15.5v33.702c0 8.547 6.953 15.5 15.5 15.5h17.134c8.547 0 15.5-6.953 15.5-15.5v-33.702c0-8.547-6.953-15.5-15.5-15.5zm.5 49.202a.5.5 0 0 1-.5.5h-17.134a.5.5 0 0 1-.5-.5v-33.702a.5.5 0 0 1 .5-.5h17.134a.5.5 0 0 1 .5.5zM139.41 150.011c1.464 1.465 3.384 2.197 5.303 2.197s3.839-.732 5.303-2.197a7.5 7.5 0 0 0 0-10.606l-17.572-17.572c-2.928-2.93-7.677-2.929-10.606 0s-2.929 7.677 0 10.606zM139.409 361.991l-17.572 17.572a7.5 7.5 0 0 0 5.303 12.803 7.474 7.474 0 0 0 5.303-2.197l17.572-17.572a7.5 7.5 0 0 0-10.606-10.606zM372.597 361.993a7.5 7.5 0 0 0-10.607 0 7.498 7.498 0 0 0-.001 10.606l17.572 17.573a7.476 7.476 0 0 0 5.304 2.197 7.478 7.478 0 0 0 5.303-2.197 7.5 7.5 0 0 0 .001-10.607zM367.295 152.21a7.478 7.478 0 0 0 5.304-2.197l17.571-17.573a7.5 7.5 0 0 0-.001-10.607 7.5 7.5 0 0 0-10.606 0l-17.571 17.573a7.5 7.5 0 0 0 .001 10.607 7.47 7.47 0 0 0 5.302 2.197z" fill="#FFFFFF" opacity="1" data-original="#000000" class=""></path></g></svg>