<svg xmlns="http://www.w3.org/2000/svg" version="1.1" xmlns:xlink="http://www.w3.org/1999/xlink" width="512" height="512" x="0" y="0" viewBox="0 0 494 494" style="enable-background:new 0 0 512 512" xml:space="preserve"><g><path d="M109.293 62.29h30v30h-30zM364.5 339.29h30v30h-30z" fill="#FFFFFF" opacity="1" data-original="#000000"></path><path d="M494 235.508c0-46.318-37.683-84-84-84h-21v-90h-90v90H175.819c15.916-26.009 23.974-49.758 23.974-70.758 0-43.694-34.047-79.242-75.897-79.242S48 37.056 48 80.75c0 24.014 11.139 52.308 33.108 84.095 15.746 22.783 31.354 38.98 32.011 39.659l10.637 10.987 10.78-10.847c.489-.492 9.247-9.351 20.184-23.136H299v27h30v28h30v-28h30v-27h21c29.775 0 54 24.224 54 54 0 27.449-20.591 50.163-47.135 53.548-11.13-6.696-24.019-10.548-37.761-10.548-14.052 0-27.214 4.022-38.513 11H172v-44H82v44.959c-46.288 6.579-82 46.465-82 94.541 0 52.659 42.841 95.5 95.5 95.5h271.879c.536.57.864.909.947.996l10.637 10.988 10.78-10.847c.659-.664 16.323-16.503 32.111-39.136C443.849 410.979 455 382.462 455 357.75c0-16.498-4.859-31.83-13.154-44.53C472.415 300.647 494 270.558 494 235.508zm-369.989-63.816C105.417 149.532 78 110.438 78 80.75c0-27.152 20.589-49.242 45.896-49.242s45.897 22.09 45.897 49.242c0 30.63-27.238 69.199-45.782 90.942zM359 178.508h-30v-87h30zm-247 97h30v87h-30zm-16.5 175c-36.117 0-65.5-29.383-65.5-65.5 0-31.489 22.339-57.853 52-64.094v71.594h30v28h30v-28h30v-73h140.657c-6.014 11.346-9.45 24.381-9.45 38.242 0 24.014 11.14 52.308 33.108 84.095a330.711 330.711 0 0 0 6.2 8.663zm283.718-1.816c-18.595-22.16-46.011-61.253-46.011-90.942 0-27.152 20.589-49.242 45.896-49.242S425 330.598 425 357.75c0 30.63-27.238 69.199-45.782 90.942z" fill="#FFFFFF" opacity="1" data-original="#000000"></path></g></svg>