<svg width="169" height="81" viewBox="0 0 169 81" fill="none" xmlns="http://www.w3.org/2000/svg">
<path d="M70.8854 51.2346C71.3445 51.3876 71.7927 51.4646 72.2299 51.4646C73.4542 51.4646 74.3177 51.1036 74.8205 50.3826C75.3452 49.6606 75.6076 48.5346 75.6076 47.0046V30.6736L78.7557 30.6406V47.0376C78.7557 49.4856 78.1982 51.3446 77.0833 52.6126C75.9902 53.9016 74.4052 54.5466 72.3283 54.5466C71.4975 54.5466 70.7214 54.4156 70 54.1536L70.8854 51.2346Z" fill="#0C0C0C"/>
<path d="M86.6168 47.0711H83.5015V21.4922H86.6168V47.0711Z" fill="#0C0C0C"/>
<path d="M93.3004 32.9721C94.8964 31.3761 96.8311 30.5781 99.1048 30.5781C101.531 30.5781 103.51 31.4091 105.04 33.0701C106.592 34.7101 107.369 36.8301 107.369 39.4321V43.9241H110.025V47.0731H107.336C107.139 49.1931 106.319 50.9641 104.876 52.3851C103.433 53.8281 101.564 54.5491 99.2687 54.5491C97.8914 54.5491 96.5688 54.2541 95.3008 53.6641C94.0547 53.0961 93.049 52.3081 92.2839 51.3031L94.481 49.2371C95.0057 49.9151 95.6943 50.4391 96.5469 50.8111C97.3995 51.2041 98.285 51.4011 99.2032 51.4011C100.624 51.4011 101.772 50.9751 102.646 50.1221C103.543 49.2701 104.056 48.2531 104.188 47.0731H99.5311C97.0388 47.0731 94.9729 46.2861 93.3332 44.7111C91.6936 43.1371 90.8738 41.1591 90.8738 38.7761C90.8738 36.5021 91.6827 34.5681 93.3004 32.9721ZM95.5631 42.4821C96.5688 43.4431 97.8914 43.9241 99.5311 43.9241H104.22V39.2021C104.22 37.5851 103.75 36.2621 102.81 35.2341C101.87 34.2071 100.635 33.6931 99.1048 33.6931C97.7056 33.6931 96.5032 34.1851 95.4976 35.1691C94.5138 36.1531 94.0219 37.3551 94.0219 38.7761C94.0219 40.3061 94.5356 41.5421 95.5631 42.4821Z" fill="#0C0C0C"/>
<path d="M109.37 43.9218H110.19C111.917 43.9218 112.781 42.8178 112.781 40.6098V30.6738H115.929V40.1838C115.929 41.3648 116.213 42.2828 116.782 42.9388C117.35 43.5948 118.071 43.9218 118.946 43.9218C119.82 43.9218 120.542 43.5948 121.11 42.9388C121.7 42.2828 121.996 41.3648 121.996 40.1838V30.6738H125.111V40.1838C125.111 41.3648 125.395 42.2828 125.964 42.9388C126.554 43.5948 127.286 43.9218 128.161 43.9218C129.035 43.9218 129.757 43.5948 130.325 42.9388C130.893 42.2828 131.178 41.3648 131.178 40.1838V30.6738H134.326V40.6098C134.326 42.8178 135.189 43.9218 136.916 43.9218H137.736V47.0708H136.916C134.927 47.0708 133.506 46.2618 132.653 44.6438C131.604 46.2618 130.106 47.0708 128.161 47.0708C126.084 47.0708 124.553 46.1848 123.57 44.4138C122.542 46.1848 121.001 47.0708 118.946 47.0708C116.956 47.0708 115.459 46.2508 114.453 44.6108C113.644 46.2508 112.223 47.0708 110.19 47.0708H109.37V43.9218ZM118.749 27.0011C118.749 26.4983 118.924 26.0611 119.274 25.6894C119.645 25.3178 120.094 25.1319 120.618 25.1319C121.121 25.1319 121.558 25.3178 121.93 25.6894C122.302 26.0611 122.487 26.4983 122.487 27.0011C122.487 27.5258 122.302 27.974 121.93 28.3456C121.558 28.6954 121.121 28.8708 120.618 28.8708C120.094 28.8708 119.645 28.6954 119.274 28.3456C118.924 27.974 118.749 27.5258 118.749 27.0011ZM124.914 25.6894C125.264 25.3178 125.69 25.1319 126.193 25.1319C126.696 25.1319 127.133 25.3178 127.505 25.6894C127.876 26.0611 128.062 26.4983 128.062 27.0011C128.062 27.5258 127.876 27.9631 127.505 28.3129C127.133 28.6845 126.696 28.8708 126.193 28.8708C125.69 28.8708 125.253 28.6954 124.881 28.3456C124.532 27.974 124.357 27.5258 124.357 27.0011C124.357 26.4983 124.542 26.0611 124.914 25.6894ZM122.225 21.4919C122.553 21.164 122.947 21 123.406 21C123.887 21 124.291 21.164 124.619 21.4919C124.947 21.8199 125.111 22.2243 125.111 22.7053C125.111 23.1644 124.947 23.5688 124.619 23.9186C124.291 24.2465 123.887 24.4105 123.406 24.4105C122.947 24.4105 122.553 24.2465 122.225 23.9186C121.897 23.5688 121.733 23.1644 121.733 22.7053C121.733 22.2243 121.897 21.8199 122.225 21.4919Z" fill="#0C0C0C"/>
<path d="M150.188 47.0709H137.071V43.9219H150.188V47.0709Z" fill="#0C0C0C"/>
<path d="M149.529 43.9277H154.448C153.639 43.3817 152.994 42.6707 152.513 41.7967C152.032 40.9007 151.792 39.9277 151.792 38.8777C151.792 36.6047 152.59 34.6697 154.185 33.0737C155.803 31.4777 157.738 30.6797 159.99 30.6797C162.242 30.6797 164.165 31.4777 165.761 33.0737C167.379 34.6697 168.188 36.6047 168.188 38.8777C168.188 41.1517 167.39 43.0867 165.794 44.6827C164.198 46.2787 162.263 47.0767 159.99 47.0767H149.529V43.9277ZM156.415 42.4527C157.399 43.4367 158.591 43.9277 159.99 43.9277C161.389 43.9277 162.58 43.4367 163.564 42.4527C164.548 41.4687 165.04 40.2777 165.04 38.8777C165.04 37.4787 164.548 36.2877 163.564 35.3037C162.58 34.2977 161.389 33.7947 159.99 33.7947C158.591 33.7947 157.399 34.2977 156.415 35.3037C155.432 36.2877 154.94 37.4787 154.94 38.8777C154.94 40.2777 155.432 41.4687 156.415 42.4527Z" fill="#0C0C0C"/>
<path d="M70.2236 80.7088V67.9048H72.3187L72.4351 70.0237C72.7455 69.2937 73.2188 68.7277 73.8551 68.3237C74.5069 67.9207 75.1975 67.7188 75.9269 67.7188C76.9046 67.7188 77.7271 67.9748 78.3945 68.4868C79.0773 68.9838 79.5584 69.6357 79.8377 70.4427C80.1171 69.6507 80.5827 68.9998 81.2345 68.4868C81.8863 67.9748 82.6623 67.7188 83.5624 67.7188C85.0057 67.7188 86.1541 68.2238 87.0076 69.2318C87.8767 70.2258 88.3112 71.7848 88.3112 73.9108V80.7088H86.0299V73.9108C86.0299 72.5298 85.7661 71.5287 85.2384 70.9077C84.7263 70.2717 84.0512 69.9538 83.2132 69.9538C82.4217 69.9538 81.7544 70.2717 81.2112 70.9077C80.6681 71.5447 80.3965 72.5458 80.3965 73.9108V80.7088H78.1151V73.9108C78.1151 72.5298 77.8513 71.5287 77.3236 70.9077C76.8115 70.2717 76.1364 69.9538 75.2984 69.9538C74.4914 69.9538 73.8163 70.3107 73.2731 71.0247C72.7455 71.7387 72.4817 72.7938 72.4817 74.1908V80.7088H70.2236Z" fill="black"/>
<path d="M91.388 80.7049V67.9009H93.6461V80.7049H91.388ZM91.0854 65.1549C91.0854 64.7509 91.2251 64.4099 91.5044 64.1299C91.7993 63.8509 92.1407 63.7109 92.5287 63.7109C92.9167 63.7109 93.2503 63.8589 93.5297 64.1539C93.809 64.4329 93.9487 64.7669 93.9487 65.1549C93.9487 65.5429 93.809 65.8759 93.5297 66.1559C93.2503 66.4499 92.9167 66.5979 92.5287 66.5979C92.1407 66.5979 91.7993 66.4579 91.5044 66.1789C91.2251 65.8989 91.0854 65.5579 91.0854 65.1549Z" fill="black"/>
<path d="M97.8882 77.2163C98.3228 77.6973 98.9203 78.0853 99.6807 78.3803C100.441 78.6593 101.225 78.7993 102.032 78.7993C102.885 78.7993 103.568 78.6443 104.08 78.3333C104.608 78.0073 104.872 77.5733 104.872 77.0303C104.872 76.5493 104.593 76.1683 104.034 75.8893C103.475 75.6103 102.8 75.3853 102.009 75.2143C101.217 75.0433 100.426 74.8423 99.6341 74.6093C98.8427 74.3603 98.1676 73.9653 97.6089 73.4223C97.0502 72.8633 96.7709 72.1413 96.7709 71.2573C96.7709 70.2013 97.2132 69.3483 98.0977 68.6963C98.9823 68.0293 100.154 67.6953 101.613 67.6953C103.863 67.6953 105.578 68.4013 106.757 69.8133L105.361 71.2103C104.957 70.7133 104.406 70.3493 103.708 70.1163C103.025 69.8683 102.35 69.7433 101.683 69.7433C100.891 69.7433 100.255 69.8833 99.7738 70.1623C99.2927 70.4263 99.0522 70.7993 99.0522 71.2803C99.0522 71.6993 99.3315 72.0403 99.8902 72.3043C100.449 72.5523 101.124 72.7623 101.916 72.9333C102.707 73.0883 103.498 73.2903 104.29 73.5383C105.081 73.7863 105.757 74.1973 106.315 74.7723C106.874 75.3463 107.153 76.0753 107.153 76.9603C107.153 78.2633 106.657 79.2573 105.663 79.9403C104.686 80.6073 103.475 80.9413 102.032 80.9413C101.008 80.9413 99.9756 80.7623 98.9358 80.4053C97.896 80.0333 97.0269 79.4663 96.3286 78.7063L97.8882 77.2163Z" fill="black"/>
<path d="M109.847 62.5469H112.106V70.1129C112.478 69.3989 113.006 68.8249 113.688 68.3899C114.387 67.9399 115.186 67.7149 116.086 67.7149C117.654 67.7149 118.918 68.2659 119.881 69.3679C120.843 70.4539 121.324 72.0609 121.324 74.1869V80.7049H119.043V74.1869C119.043 72.8049 118.717 71.7579 118.065 71.0439C117.413 70.3149 116.583 69.9499 115.574 69.9499C114.581 69.9499 113.751 70.3069 113.083 71.0209C112.431 71.7349 112.106 72.7899 112.106 74.1869V80.7049H109.847V62.5469Z" fill="black"/>
<path d="M123.117 67.9062H125.538L128.727 77.2182L131.823 67.9062H134.128L137.247 77.2182L140.436 67.9062H142.857L138.364 80.7103H136.13L132.987 71.5152L129.844 80.7103H127.586L123.117 67.9062Z" fill="black"/>
<path d="M145.995 69.6508C147.206 68.3628 148.672 67.7188 150.395 67.7188C151.419 67.7188 152.366 67.9908 153.235 68.5338C154.12 69.0768 154.764 69.7677 155.167 70.6057L155.284 67.9048H157.379V80.7088H155.284L155.167 78.0318C154.764 78.8538 154.12 79.5367 153.235 80.0797C152.366 80.6077 151.419 80.8717 150.395 80.8717C148.672 80.8717 147.198 80.2277 145.972 78.9397C144.762 77.6507 144.156 76.1067 144.156 74.3067C144.156 72.4907 144.769 70.9388 145.995 69.6508ZM147.718 77.3568C148.556 78.1948 149.573 78.6138 150.768 78.6138C151.963 78.6138 152.979 78.1948 153.817 77.3568C154.671 76.5188 155.097 75.5017 155.097 74.3067C155.097 73.1117 154.671 72.0877 153.817 71.2337C152.979 70.3807 151.963 69.9538 150.768 69.9538C149.588 69.9538 148.572 70.3807 147.718 71.2337C146.88 72.0877 146.461 73.1117 146.461 74.3067C146.461 75.5017 146.88 76.5188 147.718 77.3568Z" fill="black"/>
<path d="M160.701 67.9049H162.796L162.936 70.0009C163.309 69.3019 163.836 68.7669 164.519 68.3939C165.217 68.0219 166.009 67.8359 166.894 67.8359C166.94 67.8359 166.979 67.8359 167.01 67.8359C167.336 67.8359 167.654 67.8589 167.964 67.9049L167.499 70.0939C167.313 70.0629 167.165 70.0469 167.057 70.0469C165.862 70.0469 164.876 70.4269 164.1 71.1879C163.34 71.9479 162.959 73.1509 162.959 74.7959V80.7089H160.701V67.9049Z" fill="black"/>
<path fill-rule="evenodd" clip-rule="evenodd" d="M0 34.0538C0 15.7987 14.7986 1 33.0538 1C51.3089 1 66.1076 15.7987 66.1076 34.0538C66.1076 43.1813 62.408 51.4447 56.4265 57.4262L56.5272 57.5269L33.0542 81L9.58111 57.5269L9.68141 57.4266C7.59312 55.3383 5.78295 52.9719 4.31123 50.3878H31.8723V50.3245C32.3453 50.3664 32.8243 50.3878 33.3082 50.3878C42.1888 50.3878 49.3879 43.1886 49.3879 34.308C49.3879 25.4275 42.1888 18.2283 33.3082 18.2283C24.4276 18.2283 17.2285 25.4275 17.2285 34.308C17.2285 36.6618 17.7342 38.8974 18.6429 40.9122H0.712448C0.245564 38.6996 0 36.4054 0 34.0538Z" fill="#EBB720"/>
<path fill-rule="evenodd" clip-rule="evenodd" d="M3.33424 47.6652H15.5754H16.702H33.4401C37.323 47.6652 40.6271 46.3025 43.3525 43.5771C46.078 40.8516 47.4407 37.5475 47.4407 33.6647C47.4407 29.7818 46.0593 26.4777 43.2965 23.7523C40.5711 21.0268 37.2856 19.6641 33.4401 19.6641C29.5946 19.6641 26.2905 21.0268 23.5277 23.7523C20.8023 26.4777 19.4396 29.7818 19.4396 33.6647C19.4396 35.4567 19.8503 37.1181 20.6716 38.6489C21.493 40.1423 22.5944 41.3556 23.9758 42.289H16.702H15.5754H1.30005C1.82397 44.153 2.50724 45.9503 3.33424 47.6652ZM33.4401 42.289C31.0507 42.289 29.016 41.449 27.3359 39.7689C25.6558 38.0888 24.8158 36.0541 24.8158 33.6647C24.8158 31.2752 25.6558 29.2405 27.3359 27.5604C29.016 25.843 31.0507 24.9843 33.4401 24.9843C35.8296 24.9843 37.8643 25.843 39.5444 27.5604C41.2244 29.2405 42.0645 31.2752 42.0645 33.6647C42.0645 36.0541 41.2244 38.0888 39.5444 39.7689C37.8643 41.449 35.8296 42.289 33.4401 42.289Z" fill="#0C0C0C"/>
</svg>
