<svg xmlns="http://www.w3.org/2000/svg" version="1.1" xmlns:xlink="http://www.w3.org/1999/xlink" width="512" height="512" x="0" y="0" viewBox="0 0 128 128" style="enable-background:new 0 0 512 512" xml:space="preserve"><g><path d="M41.13 128h-28a2 2 0 0 1-2-2V52a2 2 0 0 1 4 0v72h24V52a2 2 0 0 1 4 0v74a2 2 0 0 1-2 2z" fill="#EBB720" opacity="1" data-original="#000000"></path><path d="M27.13 128a2 2 0 0 1-2-2V78.19a2 2 0 0 1 4 0V126a2 2 0 0 1-2 2z" fill="#EBB720" opacity="1" data-original="#000000"></path><path d="M52.25 85.12a2 2 0 0 1-2-2V47.18A11.25 11.25 0 0 0 39 36H15.24A11.25 11.25 0 0 0 4 47.18v35.94a2 2 0 0 1-4 0V47.18A15.25 15.25 0 0 1 15.24 32H39a15.24 15.24 0 0 1 15.25 15.18v35.94a2 2 0 0 1-2 2z" fill="#EBB720" opacity="1" data-original="#000000"></path><path d="M27.13 36a18 18 0 1 1 18-18 18 18 0 0 1-18 18zm0-32a14 14 0 1 0 14 14 14 14 0 0 0-14-14z" fill="#EBB720" opacity="1" data-original="#000000"></path><path d="M27.13 48a2 2 0 0 1-1.65-.87l-8.58-12.5a2 2 0 0 1 3.3-2.26l6.93 10.11 6.93-10.11a2 2 0 1 1 3.3 2.26l-8.58 12.52a2 2 0 0 1-1.65.85zM27.13 12.78c-5.1 0-9.93-1.28-13.26-3.53a2 2 0 1 1 2.24-3.31c2.68 1.81 6.7 2.84 11 2.84s8.33-1 11-2.84a2 2 0 0 1 2.23 3.31c-3.28 2.25-8.12 3.53-13.21 3.53zM118.13 97.29h-4.91a2 2 0 0 1 0-4h4.91c2.46 0 5.87-1.82 5.87-5.25v-5.83c0-4.23-1.81-6.64-5.52-7.37-3.92-.78-9.68-1.74-14.3-2.52l-3.53-.59C96.3 71 91.83 68.16 88.4 64c-1.41-1.71-2.7-3.34-4-4.92-1.69-2.14-3.3-4.16-5-6.23-2.76-3.28-5.31-4.39-10.08-4.39h-9.09a2 2 0 0 1 0-4h9.09c5.94 0 9.62 1.63 13.14 5.82 1.78 2.11 3.4 4.15 5.11 6.31 1.25 1.57 2.53 3.18 3.93 4.88 2.78 3.41 6.46 5.79 9.83 6.36l3.51.59c4.65.78 10.44 1.75 14.41 2.53C124.89 72 128 76 128 82.21V88c0 5.76-5.12 9.29-9.87 9.29zM90.61 97.29H49.09a2 2 0 1 1 0-4h41.52a2 2 0 0 1 0 4z" fill="#EBB720" opacity="1" data-original="#000000"></path><path d="M101.93 108.6a13.3 13.3 0 1 1 13.29-13.3 13.32 13.32 0 0 1-13.29 13.3zm0-22.59a9.3 9.3 0 1 0 9.29 9.29 9.31 9.31 0 0 0-9.29-9.3zM98.92 71.54H60.34a2 2 0 1 1 0-4h38.58a2 2 0 0 1 0 4zM60.34 97.19a2 2 0 0 1-2-2V76.75a2 2 0 0 1 4 0v18.44a2 2 0 0 1-2 2zM71.59 78.43h-4a2 2 0 0 1 0-4h4a2 2 0 0 1 0 4z" fill="#EBB720" opacity="1" data-original="#000000"></path></g></svg>