<svg xmlns="http://www.w3.org/2000/svg" version="1.1" xmlns:xlink="http://www.w3.org/1999/xlink" width="512" height="512" x="0" y="0" viewBox="0 0 128 128" style="enable-background:new 0 0 512 512" xml:space="preserve" class=""><g><path d="M92.313 42.272v-3.721a1.748 1.748 0 0 0-1.148-1.643l-1.368-.5c-1.166-3.526-1.595-4.843-1.647-4.961a3.136 3.136 0 0 0-2.688-1.853c-.179-.015-.172 0-1.492-.008l-6.4-9.011a1.75 1.75 0 0 0-1.427-.736h-2.587L72.4 16.4a1.748 1.748 0 0 0-1.659-1.2h-3.829a1.75 1.75 0 0 0-1.66 1.2L64.1 19.837h-3.625a1.747 1.747 0 0 0-1.585 1.009l-4.214 9.017-10.035 2.784a4.944 4.944 0 0 0-3.035 1.8l-1.764 2.223c-.008.011-.011.024-.019.035a1.825 1.825 0 0 0-.36 1.053v2.824a4.373 4.373 0 0 0 .606 8.7H47.9a6.706 6.706 0 0 0 11.432 0h15.327a6.705 6.705 0 0 0 11.431 0h1.044a3.727 3.727 0 0 0 3.49-2.379c1.398-3.679 1.689-4.047 1.689-4.631zm-7.69-1.75a6.716 6.716 0 0 0-8.5 0H57.862a6.715 6.715 0 0 0-8.5 0H48.6v-1.349a3.162 3.162 0 0 0-3.032-3.152l10.589-2.937h24.63v2.7a3.723 3.723 0 0 0 3.719 3.719h3.584l.723.265v.749zm-24.5 3.5h13.74a6.8 6.8 0 0 0-.229 1.725v.04H60.351v-.04a6.76 6.76 0 0 0-.227-1.725zm-17.161-3.5v-1.014H45.1v1.014zm43.018-4.514h-1.474a.216.216 0 0 1-.219-.219v-2.7h.727zm-6.3-6.424h-6.024v-6.247h1.585zM68.171 18.7h1.314l.381 1.137H67.79zm-6.582 4.637h8.567v6.247H58.67zm-22.4 21.568a.884.884 0 0 1 .882-.883H47.1a6.76 6.76 0 0 0-.229 1.725v.04h-6.802a.883.883 0 0 1-.882-.882zm14.427 4.081a3.24 3.24 0 1 1 3.239-3.239 3.252 3.252 0 0 1-3.241 3.239zm26.759 0a3.24 3.24 0 1 1 3.24-3.239 3.252 3.252 0 0 1-3.242 3.239zm6.993-3.356c-.057.147-.143.125-.255.157v-.04a6.76 6.76 0 0 0-.229-1.725H88zM77.24 71.91a5.032 5.032 0 0 0-1.7.294 5.083 5.083 0 0 0-4.92-3.854 5.029 5.029 0 0 0-1.737.307A4.928 4.928 0 0 0 67.6 66.45h8.28c3.094 0 5.61-2.8 5.61-6.24v-.31c0-3.44-2.516-6.24-5.61-6.24H52.12c-3.094 0-5.61 2.8-5.61 6.24v.31c0 3.44 2.516 6.24 5.61 6.24h.2v9.075a5.052 5.052 0 0 0-1.97-.229 5.174 5.174 0 0 0-4.65 5.2V92.21c0 4.024 2.169 5.942 3.761 8.983a6.333 6.333 0 0 1 .919 3.267v6.59a1.75 1.75 0 0 0 1.75 1.75h23.8a1.75 1.75 0 0 0 1.75-1.761l-.04-6.7a5.857 5.857 0 0 1 .839-3.054C80.1 98.2 82.3 96.22 82.3 92.21V76.97a5.062 5.062 0 0 0-5.06-5.06zm-1.36-14.75c1.144 0 2.11 1.255 2.11 2.74v.31c0 1.485-.966 2.74-2.11 2.74H62.44v-1.69a5.046 5.046 0 0 0-2.093-4.1zm-23.76 5.79c-1.144 0-2.11-1.255-2.11-2.74v-.31c0-1.485.966-2.74 2.11-2.74h2.3a5.093 5.093 0 0 0-2.1 4.1v1.69zM78.8 92.21c0 2.7-1.461 3.847-3.321 7.269a9.356 9.356 0 0 0-1.339 4.881l.03 4.94H53.88v-4.84a9.831 9.831 0 0 0-1.42-5.071C50.7 96.144 49.2 94.9 49.2 92.21V80.5a1.682 1.682 0 0 1 1.427-1.716 1.564 1.564 0 0 1 1.693 1.566v8.424a1.75 1.75 0 0 0 3.5 0V61.26a1.566 1.566 0 0 1 1.57-1.56 1.562 1.562 0 0 1 1.55 1.56v22.058a1.75 1.75 0 0 0 3.5 0V69.989a1.56 1.56 0 0 1 3.12.011v13.32a1.75 1.75 0 0 0 3.5 0v-9.898a1.567 1.567 0 0 1 1.56-1.57 1.591 1.591 0 0 1 1.57 1.57v3.324c-.047.368-.009-.42-.023 6.574a1.75 1.75 0 1 0 3.5 0l.023-6.348a1.555 1.555 0 1 1 3.11 0z" fill="#EBB720" opacity="1" data-original="#000000" class=""></path></g></svg>