<svg xmlns="http://www.w3.org/2000/svg" version="1.1" xmlns:xlink="http://www.w3.org/1999/xlink" width="512" height="512" x="0" y="0" viewBox="0 0 64 64" style="enable-background:new 0 0 512 512" xml:space="preserve" class=""><g><g data-name="Layer 2"><path d="M38.586 58.898A12.854 12.854 0 0 1 37 59H11.12a4.016 4.016 0 0 1-2.714-6.932 45.56 45.56 0 0 0 2.152 2.127A.993.993 0 0 0 11.12 56h4.5a.998.998 0 0 0 .026-1.995c.85-.795 1.878-1.82 2.922-3.005H34.04a1 1 0 1 0 0-2H20.207a19.75 19.75 0 0 0 3.413-6.4c2.307.692 9.646.308 12.12.4a1 1 0 0 0 0-2c-2.29-.095-9.648.29-11.766-.375a10.429 10.429 0 0 0-.299-3.23 9.252 9.252 0 0 0 2.32.542 1.001 1.001 0 0 0 .116-1.993 7.91 7.91 0 0 1-3.537-1.341 11.07 11.07 0 0 0-2.743-3.21 7.856 7.856 0 0 1-.766-3.698 1 1 0 0 0-.96-1.037c-1.597.056-.963 2.179-.857 3.197a10.91 10.91 0 0 0-3.142-.799A13.024 13.024 0 0 1 27.06 15h12.862a23.313 23.313 0 0 0 2.433 3H40.32a1 1 0 0 0 0 2h4.122c.994.785 1.2 1.329 2.171.79a30.242 30.242 0 0 0 3.204-2.973A4.014 4.014 0 0 1 46 23H27.06c-6.601.207-6.612 9.79 0 10H37a12.92 12.92 0 0 1 7.456 2.358 1 1 0 0 0 1.148-1.636A14.905 14.905 0 0 0 37 31h-9.94a3 3 0 0 1 0-6H46a6.024 6.024 0 0 0 5.259-8.868C52.738 14.238 54 11.988 54 9.8A7.91 7.91 0 0 0 46 2c-5.637-.097-9.802 5.947-7.21 11H27.06a15.031 15.031 0 0 0-14.963 16.046A11.009 11.009 0 0 0 2 40c0 3.718 2.515 7.6 5.07 10.584A6.016 6.016 0 0 0 11.12 61H37c.937-.067 2.8.204 2.702-1.234a.999.999 0 0 0-1.116-.868ZM46 4a5.909 5.909 0 0 1 6 5.8c0 3.156-3.89 7.115-6 8.909-2.362-2.049-5.945-5.732-6-8.91A5.909 5.909 0 0 1 46 4ZM13 31a9.01 9.01 0 0 1 9 9c.126 4.738-5.84 11.008-9 13.692C10.865 51.84 4 45.462 4 40a9.01 9.01 0 0 1 9-9Z" fill="#EBB720" opacity="1" data-original="#000000" class=""></path><path d="M37 36h-1.917a1 1 0 0 0 0 2H37c1.136-.23 2.951 1.117 3.509-.345C40.822 35.92 38.126 36.126 37 36ZM30.76 54a1 1 0 0 0 0 2h4.5a1 1 0 0 0 0-2ZM19 40c-.252-7.93-11.75-7.928-12 0 .252 7.93 11.75 7.928 12 0ZM9 40a4 4 0 0 1 8 0 4 4 0 0 1-8 0ZM50 10a4 4 0 0 0-8 0 4 4 0 0 0 8 0Zm-6 0a2 2 0 0 1 4 0 2 2 0 0 1-4 0Z" fill="#EBB720" opacity="1" data-original="#000000" class=""></path><path d="M49 36a13.015 13.015 0 0 0-13 13c.714 17.246 25.289 17.241 26 0a13.015 13.015 0 0 0-13-13Zm0 24a11.012 11.012 0 0 1-11-11c.604-14.593 21.398-14.589 22 0a11.012 11.012 0 0 1-11 11Z" fill="#EBB720" opacity="1" data-original="#000000" class=""></path><path d="M53.485 45.143 50 47.233V41a1 1 0 0 0-2 0v8a1.007 1.007 0 0 0 1.515.857l5-3a1 1 0 0 0-1.03-1.714ZM49 57a1 1 0 0 0 0 2 1 1 0 0 0 0-2ZM58 50a1 1 0 0 0 0-2 1 1 0 0 0 0 2ZM40 48a1 1 0 0 0 0 2 1 1 0 0 0 0-2Z" fill="#EBB720" opacity="1" data-original="#000000" class=""></path></g></g></svg>