<svg xmlns="http://www.w3.org/2000/svg" version="1.1" xmlns:xlink="http://www.w3.org/1999/xlink" width="512" height="512" x="0" y="0" viewBox="0 0 512 512" style="enable-background:new 0 0 512 512" xml:space="preserve"><g><path d="M106.297 354.81H67.638c-9.61 0-17.429 7.818-17.429 17.429v10.373c0 9.61 7.818 17.429 17.429 17.429h38.659c9.61 0 17.429-7.818 17.429-17.429v-10.373c0-9.611-7.819-17.429-17.429-17.429zm1.429 27.801c0 .774-.654 1.429-1.429 1.429H67.638a1.448 1.448 0 0 1-1.429-1.429v-10.373c0-.774.654-1.429 1.429-1.429h38.659c.774 0 1.429.654 1.429 1.429zm87.911-27.801h-38.658c-9.61 0-17.43 7.818-17.43 17.429v10.373c0 9.61 7.819 17.429 17.43 17.429h38.658c9.61 0 17.43-7.818 17.43-17.429v-10.373c-.001-9.611-7.82-17.429-17.43-17.429zm1.429 27.801c0 .774-.654 1.429-1.43 1.429h-38.658c-.775 0-1.43-.654-1.43-1.429v-10.373c0-.774.654-1.429 1.43-1.429h38.658c.775 0 1.43.654 1.43 1.429zm-78.764-151.795H64.59c-7.93 0-14.381 6.451-14.381 14.381v38.29c0 7.93 6.451 14.382 14.381 14.382h53.712c7.93 0 14.381-6.452 14.381-14.382v-38.29c0-7.929-6.452-14.381-14.381-14.381zm-1.619 51.053H66.209v-35.053h50.474zm120.457-59.603a8 8 0 0 1 8-8h138.607a8 8 0 0 1 0 16H245.14a8 8 0 0 1-8-8zm154.607 28.125a8 8 0 0 1-8 8h-77.993a8 8 0 0 1 0-16h77.993a8 8 0 0 1 8 8zm43.848 39.2v-7.171l62.891-36.31c12.921-7.46 17.363-24.041 9.903-36.962L395.44 13.516C391.837 7.273 386 2.804 379.004.93c-6.992-1.872-14.284-.923-20.526 2.682L72.264 168.856H27.059C12.139 168.856 0 180.995 0 195.915v225.897c0 14.92 12.139 27.059 27.059 27.059h268.197C314.104 486.278 352.872 512 397.54 512 460.653 512 512 460.653 512 397.54c0-49.778-31.943-92.228-76.405-107.949zm54.89-57.336-54.891 31.691v-68.031c0-14.92-12.138-27.059-27.058-27.059H285.695L421.413 90.5l73.121 126.648c3.047 5.281 1.232 12.058-4.049 15.107zm-289.652-63.399L400.197 53.754l13.216 22.891-159.716 92.212h-52.864zM366.478 17.467c2.54-1.466 5.521-1.851 8.386-1.082 2.867.768 5.254 2.59 6.721 5.13l10.614 18.383-223.364 128.958h-64.573zM27.059 432.871c-6.098 0-11.059-4.961-11.059-11.059V195.915c0-6.098 4.961-11.059 11.059-11.059h381.479c6.098 0 11.058 4.961 11.058 11.059v89.305a114.594 114.594 0 0 0-22.055-2.141c-48.417 0-89.906 30.219-106.605 72.785a17.453 17.453 0 0 0-5.958-1.054H246.32c-9.61 0-17.429 7.818-17.429 17.429v10.373c0 9.61 7.818 17.429 17.429 17.429h36.792a113.902 113.902 0 0 0 5.556 32.831H27.059zm219.26-48.831a1.448 1.448 0 0 1-1.429-1.429v-10.373c0-.774.654-1.429 1.429-1.429h38.658c.449 0 .85.242 1.117.588a113.97 113.97 0 0 0-2.216 12.642h-37.559zM397.54 496c-54.292 0-98.461-44.169-98.461-98.46 0-54.292 44.169-98.461 98.461-98.461 54.291 0 98.46 44.169 98.46 98.461 0 54.291-44.169 98.46-98.46 98.46zm33.699-86.257h-.011c-7.514.003-14.577 2.932-19.889 8.246-5.311 5.315-8.234 12.38-8.231 19.895.003 7.514 2.932 14.577 8.246 19.888 5.313 5.31 12.373 8.232 19.883 8.232h.011c7.514-.003 14.577-2.931 19.889-8.245 5.312-5.315 8.235-12.38 8.232-19.895s-2.932-14.578-8.246-19.889c-5.312-5.309-12.374-8.232-19.884-8.232zm.003 40.261h-.004a12.052 12.052 0 0 1-8.574-3.55c-2.292-2.29-3.555-5.336-3.556-8.576s1.26-6.287 3.55-8.579 5.336-3.555 8.576-3.556h.004c3.239 0 6.284 1.261 8.575 3.55a12.05 12.05 0 0 1 3.556 8.577c.002 6.689-5.437 12.132-12.127 12.134zm-67.39-64.668c7.514-.003 14.577-2.931 19.888-8.245 5.312-5.315 8.235-12.38 8.232-19.895-.003-7.514-2.932-14.577-8.246-19.889-5.313-5.309-12.374-8.231-19.884-8.231h-.011c-7.514.002-14.577 2.931-19.888 8.245-5.312 5.315-8.235 12.38-8.232 19.895.003 7.514 2.932 14.577 8.246 19.889 5.313 5.309 12.374 8.231 19.884 8.231zm-12.141-28.126a12.054 12.054 0 0 1 3.55-8.579 12.05 12.05 0 0 1 8.575-3.555h.005c3.239 0 6.284 1.261 8.575 3.55 2.292 2.29 3.555 5.336 3.556 8.576s-1.26 6.287-3.55 8.578a12.05 12.05 0 0 1-8.576 3.556h-.004a12.053 12.053 0 0 1-8.575-3.55 12.05 12.05 0 0 1-3.556-8.576zm90.661-7.909-75.443 105.073a7.992 7.992 0 0 1-6.505 3.335 7.961 7.961 0 0 1-4.659-1.503 8 8 0 0 1-1.832-11.164l75.443-105.073a7.996 7.996 0 0 1 11.164-1.832 8 8 0 0 1 1.832 11.164z" fill="#EBB720" opacity="1" data-original="#000000"></path></g></svg>